# xmcd
# 
# Track frame offsets:
#     150
#     16582
#     36200
# 
# Disc length: 632
# 
# Revision: 0
# Processed by: cddbd v1.5.2PL0 Copyright (c) Steve Scherf et al.
# Submitted via: BonkEnc v1.0.8
# 
DISCID=15027603
DTITLE=Tom Astor - I
DYEAR=1996
DGENRE=Country
TTITLE0=Irgend wie wird´s schon gehn
TTITLE1=Johnny Cash Medley
TTITLE2=Niemand schaut der Zukunft in die Karten
EXTD=
EXTT0=
EXTT1=
EXTT2=
PLAYORDER=
